<?xml version="1.0" standalone="no"?>
<!DOCTYPE svg PUBLIC "-//W3C//DTD SVG 20010904//EN"
 "http://www.w3.org/TR/2001/REC-SVG-20010904/DTD/svg10.dtd">
<svg version="1.0" xmlns="http://www.w3.org/2000/svg"
 width="333.000000pt" height="333.000000pt" viewBox="0 0 333.000000 333.000000"
 preserveAspectRatio="xMidYMid meet">
<metadata>
Created by potrace 1.14, written by Peter Selinger 2001-2017
</metadata>
<g transform="translate(0.000000,333.000000) scale(0.100000,-0.100000)"
fill="#000000" stroke="none">
<path d="M2161 2912 c-8 -3 -35 -20 -59 -39 -62 -47 -109 -69 -163 -76 -41 -6
-47 -4 -56 16 -7 15 -27 28 -52 36 -40 12 -54 8 -417 -104 l-376 -116 -102 46
c-56 25 -104 45 -108 45 -9 0 -471 -333 -530 -382 -120 -100 -231 -285 -267
-448 -31 -135 -1 -293 73 -393 24 -32 183 -169 426 -367 91 -74 167 -137 170
-140 3 -3 75 -61 160 -129 85 -67 164 -130 175 -140 103 -87 187 -141 220
-141 8 0 23 8 33 17 27 26 56 48 64 51 5 1 32 -13 60 -31 29 -19 80 -46 113
-61 33 -16 79 -47 101 -71 77 -78 123 -70 283 51 63 47 164 122 225 165 61 43
176 126 256 184 80 58 156 113 170 123 14 9 48 33 75 53 28 19 111 79 185 132
320 228 373 281 414 411 44 139 16 197 -126 255 -48 20 -90 39 -93 43 -16 16
7 58 42 79 45 27 53 37 53 67 0 20 4 23 32 20 l31 -3 24 105 c13 58 32 132 42
165 11 33 25 85 32 115 6 30 19 65 27 78 8 12 13 24 11 26 -2 2 -62 22 -134
44 -164 50 -733 231 -885 281 -63 21 -121 36 -129 33z"/>
</g>
</svg>
