<?xml version="1.0" standalone="no"?>
<!DOCTYPE svg PUBLIC "-//W3C//DTD SVG 20010904//EN"
 "http://www.w3.org/TR/2001/REC-SVG-20010904/DTD/svg10.dtd">
<svg version="1.0" xmlns="http://www.w3.org/2000/svg"
 width="460.000000pt" height="460.000000pt" viewBox="0 0 460.000000 460.000000"
 preserveAspectRatio="xMidYMid meet">
<metadata>
Created by potrace 1.11, written by Peter Selinger 2001-2013
</metadata>
<g transform="translate(0.000000,460.000000) scale(0.100000,-0.100000)"
fill="#000000" stroke="none">
<path d="M1675 3435 c-5 -2 -27 -6 -47 -10 -40 -6 -39 -5 -63 -109 l-6 -29
-41 57 c-22 31 -45 55 -52 53 -6 -2 -17 -43 -25 -90 -7 -48 -16 -87 -20 -87
-3 0 -28 36 -56 80 -27 44 -55 80 -61 80 -7 0 -11 -20 -11 -52 0 -39 1 -45 6
-23 l6 29 18 -27 c9 -14 17 -31 17 -36 0 -5 6 -12 13 -14 7 -3 5 -6 -5 -6 -12
-1 -15 -6 -11 -18 3 -10 3 -15 -2 -11 -4 4 -11 22 -16 40 -8 32 -8 31 -4 -7 2
-22 7 -55 11 -72 4 -21 3 -33 -4 -33 -6 0 -13 19 -15 43 l-4 42 -1 -49 -2 -48
30 6 c19 3 29 2 25 -4 -3 -6 -21 -10 -38 -10 -28 1 -36 8 -67 57 -56 90 -90
147 -96 161 -6 11 -34 18 -34 7 0 -7 37 -73 71 -126 47 -74 45 -178 -3 -118
l-18 24 10 -28 c9 -24 8 -28 -6 -25 -9 2 -48 55 -86 118 -38 63 -75 121 -82
128 -10 10 -33 12 -93 7 -45 -4 -86 -11 -93 -15 -9 -6 25 -78 127 -266 176
-324 167 -308 154 -300 -6 4 -18 22 -26 39 -7 18 -39 77 -69 132 -53 97 -56
100 -89 99 -30 -1 -36 4 -57 44 -13 24 -26 40 -28 33 -2 -6 5 -26 16 -43 39
-65 173 -330 169 -334 -7 -7 -28 31 -97 168 -55 111 -80 144 -80 106 0 -6 29
-68 65 -139 36 -70 65 -129 65 -132 0 -2 -10 -3 -22 -2 -17 1 -23 8 -24 25 -1
13 -7 26 -13 28 -6 2 -9 8 -5 13 3 5 0 9 -5 9 -6 0 -11 7 -11 15 0 9 -11 38
-25 65 -14 27 -25 59 -25 71 0 20 -3 21 -51 16 -29 -4 -54 -9 -57 -11 -2 -3
11 -38 31 -78 50 -104 77 -166 77 -175 -1 -4 -7 3 -15 17 -29 51 -14 -3 25
-86 22 -48 39 -89 36 -91 -3 -3 -79 145 -89 177 -5 12 -6 12 -6 -1 -1 -9 -11
-19 -24 -23 -23 -5 -190 -26 -216 -26 -9 0 -12 -8 -9 -24 4 -17 1 -23 -8 -19
-16 6 -12 -8 71 -221 102 -264 183 -451 194 -449 5 2 8 -3 5 -11 -5 -13 10
-55 56 -161 9 -22 23 -57 29 -78 8 -22 17 -34 23 -31 7 4 8 2 4 -4 -8 -14 23
-114 34 -107 5 3 6 -4 3 -14 -3 -10 0 -29 7 -41 16 -30 87 -227 117 -325 35
-115 51 -217 65 -409 11 -155 11 -169 -5 -181 -19 -14 -24 -30 -5 -19 7 5 9 2
5 -9 -3 -9 0 -18 9 -21 8 -3 14 -12 14 -20 0 -8 13 -24 30 -36 25 -18 43 -21
132 -21 57 0 121 0 143 0 22 0 87 2 145 5 220 12 229 14 385 50 39 9 124 28
190 42 66 14 138 29 160 34 43 10 305 67 370 80 22 5 60 14 85 20 25 7 86 20
135 31 50 11 97 21 105 23 8 2 47 9 85 16 39 6 84 18 102 26 17 8 39 14 50 14
10 0 31 7 47 15 15 8 31 13 35 10 10 -6 82 16 101 30 8 6 25 12 37 13 13 0 43
15 67 31 25 17 52 31 60 31 9 0 41 16 71 36 29 20 58 33 64 29 7 -3 8 0 5 10
-5 11 -2 14 10 9 12 -4 15 -2 10 9 -3 8 -1 18 5 21 7 5 7 15 1 31 -9 22 -7 25
16 25 59 0 144 68 144 115 0 9 4 14 9 10 16 -9 6 263 -12 325 -21 75 -105 247
-130 268 -9 8 -6 -17 10 -80 13 -51 28 -132 33 -181 19 -167 -20 -362 -87
-439 -9 -9 -36 -20 -62 -24 -25 -4 -71 -19 -101 -34 -30 -15 -80 -31 -110 -35
-30 -3 -71 -11 -90 -16 -35 -10 -144 -29 -191 -33 -14 -2 -31 -6 -38 -10 -7
-4 -36 -11 -64 -16 -29 -4 -99 -18 -157 -30 -58 -12 -134 -23 -168 -24 -35 -2
-67 -7 -70 -12 -4 -6 -35 -10 -70 -11 -44 -1 -73 -7 -99 -23 -20 -12 -49 -22
-65 -22 -16 -1 -31 -4 -33 -9 -3 -4 -39 -11 -81 -14 -49 -5 -71 -11 -63 -16 9
-5 -6 -7 -36 -3 -37 4 -46 3 -35 -5 12 -9 10 -11 -12 -11 -15 0 -38 -4 -52
-10 -14 -5 -44 -10 -66 -12 -23 -1 -43 -5 -46 -9 -4 -7 -131 -25 -147 -21 -5
2 -5 -3 -1 -9 5 -9 -3 -10 -30 -6 -25 4 -46 1 -60 -8 -27 -18 -121 -31 -130
-17 -4 6 -21 6 -52 0 -56 -12 -68 -3 -84 62 -14 61 -52 317 -53 358 0 22 -3
29 -10 20 -6 -9 -7 -6 -4 10 3 12 2 22 -2 22 -10 0 -31 70 -31 104 0 14 -4 26
-9 26 -5 0 -7 8 -4 19 3 10 0 22 -6 25 -6 4 -11 16 -11 27 0 10 -7 19 -15 19
-8 0 -15 5 -15 12 0 7 -22 57 -49 113 -27 55 -51 118 -54 140 -4 26 -3 35 3
25 6 -10 9 -4 8 20 -1 19 2 78 5 130 3 52 1 120 -4 150 -14 76 -49 180 -60
180 -6 0 -7 -4 -4 -10 13 -22 -4 -8 -19 15 -13 19 -13 23 -2 19 12 -5 12 0 0
35 -20 60 -36 172 -29 209 14 74 20 79 114 92 47 7 129 19 181 27 52 8 214 32
360 54 146 21 321 48 390 60 109 18 243 36 290 38 13 1 13 2 0 11 -8 5 -10 10
-5 10 6 0 16 -5 23 -12 7 -7 12 -8 12 -2 0 6 13 10 29 9 18 -1 27 3 25 9 -3 7
3 20 11 31 16 20 16 20 6 -2 -8 -16 -7 -22 3 -26 15 -6 144 14 161 24 6 4 26
10 45 13 26 5 31 4 20 -3 -27 -19 10 -13 55 9 l40 19 -36 -5 c-26 -4 -36 -2
-36 8 0 9 12 13 40 11 35 -2 38 -1 21 11 -10 8 -23 12 -30 9 -7 -3 -10 7 -9
29 11 126 15 221 9 215 -9 -9 -10 -13 -19 -122 -6 -61 -9 -75 -16 -57 -9 25
-73 57 -96 48 -8 -3 -11 -1 -8 5 4 5 17 9 28 8 12 -1 29 1 37 4 8 3 22 8 30
11 8 3 1 5 -16 3 -23 -2 -31 0 -27 10 3 7 15 13 27 13 16 0 18 2 7 9 -7 5 -10
14 -7 20 4 6 0 11 -11 12 -13 1 -11 3 7 10 20 7 17 8 -15 4 -22 -3 -52 -5 -67
-5 -20 0 -28 -5 -28 -17 0 -16 -1 -16 -12 0 -8 10 -28 17 -53 17 -51 0 -127
-5 -140 -10 -21 -8 -53 19 -48 40 4 15 0 20 -15 20 -23 0 -42 22 -24 28 16 5
5 22 -14 22 -9 0 -13 -5 -9 -12 4 -7 0 -5 -9 6 -13 16 -25 18 -81 14 -57 -5
-65 -3 -65 12 0 18 -30 50 -46 50 -5 0 -2 -5 6 -10 10 -7 11 -10 2 -10 -7 0
-15 7 -18 15 -8 21 -24 19 -24 -2 0 -15 -2 -16 -10 -3 -7 11 -4 18 15 26 l25
10 -25 24 c-25 23 -37 16 -13 -8 10 -10 10 -15 -2 -22 -8 -5 -18 -6 -22 -4 -4
3 -8 -13 -8 -35 l0 -39 -30 11 c-17 6 -30 19 -30 28 0 9 -7 22 -15 29 -13 11
-15 8 -15 -18 0 -18 -6 -32 -16 -36 -8 -3 -13 -2 -10 3 3 5 -1 22 -9 37 l-15
29 0 -40 -1 -40 -20 24 c-11 13 -22 21 -25 18 -8 -7 14 -47 26 -47 6 0 10 -8
10 -17 -1 -16 -2 -16 -13 -2 -14 18 -55 31 -62 19 -3 -5 5 -11 17 -13 13 -2 1
-4 -27 -4 -27 0 -40 2 -27 4 12 2 20 9 17 14 -4 5 -1 9 5 9 6 0 9 4 5 9 -3 5
0 13 6 17 8 4 9 3 5 -4 -4 -7 -1 -12 9 -12 11 0 15 5 12 14 -3 8 -1 16 5 18 9
3 -46 85 -97 145 -5 7 -26 33 -45 58 -33 42 -38 45 -80 44 -25 0 -49 -2 -55
-4z m-328 -262 c-3 -10 -5 -4 -5 12 0 17 2 24 5 18 2 -7 2 -21 0 -30z m527
-28 c-10 -8 -23 -14 -29 -14 -5 0 -1 6 9 14 11 8 24 15 30 15 5 0 1 -7 -10
-15z m-624 -15 c0 -5 -2 -10 -4 -10 -3 0 -8 5 -11 10 -3 6 -1 10 4 10 6 0 11
-4 11 -10z m878 -11 c-7 -5 -31 -8 -53 -7 l-40 1 38 4 c20 2 37 8 37 13 0 5 7
7 16 3 13 -5 13 -7 2 -14z m312 -84 c13 -14 21 -25 18 -25 -2 0 -15 11 -28 25
-13 14 -21 25 -18 25 2 0 15 -11 28 -25z m350 -35 c-12 -23 -30 -27 -30 -7 0
17 10 27 27 27 11 0 11 -5 3 -20z m-145 -40 c-5 -8 -11 -8 -17 -2 -6 6 -7 16
-3 22 5 8 11 8 17 2 6 -6 7 -16 3 -22z m-1736 -225 c0 -5 -9 7 -20 28 -19 36
-37 52 -25 22 3 -8 1 -15 -4 -15 -10 0 -18 24 -24 75 -2 17 -7 39 -10 50 -4
11 13 -18 38 -65 25 -47 45 -89 45 -95z m1664 154 c-4 -4 -21 -5 -38 -1 -30 6
-30 6 -5 12 29 8 55 1 43 -11z m174 -5 c-3 -3 -12 -4 -19 -1 -8 3 -5 6 6 6 11
1 17 -2 13 -5z m-1813 -430 c3 -8 2 -12 -4 -9 -6 3 -10 10 -10 16 0 14 7 11
14 -7z m36 -82 c0 -15 -2 -15 -10 -2 -13 20 -13 33 0 25 6 -3 10 -14 10 -23z
m130 -32 c6 -11 8 -20 6 -20 -3 0 -10 9 -16 20 -6 11 -8 20 -6 20 3 0 10 -9
16 -20z m-86 -66 c3 -8 2 -12 -4 -9 -6 3 -10 10 -10 16 0 14 7 11 14 -7z m51
-105 c14 -28 22 -48 17 -45 -9 6 -52 81 -52 91 0 14 11 0 35 -46z m125 -13 c0
-12 -5 -7 -19 24 -11 24 -11 24 3 6 9 -11 16 -24 16 -30z m47 -123 c-3 -10 -5
-2 -5 17 0 19 2 27 5 18 2 -10 2 -26 0 -35z m-102 -13 c4 -16 11 -32 16 -35 5
-4 9 -14 9 -23 0 -11 -6 -6 -16 13 -26 48 -34 75 -25 75 5 0 12 -13 16 -30z
m59 -130 l7 -25 -15 25 c-17 28 -21 50 -7 35 5 -6 12 -21 15 -35z m45 -110 c0
-8 -8 5 -19 29 -11 24 -20 46 -20 50 1 12 39 -64 39 -79z m21 -30 c0 -5 -2
-10 -4 -10 -3 0 -8 5 -11 10 -3 6 -1 10 4 10 6 0 11 -4 11 -10z m1355 -890
c-3 -5 -18 -10 -33 -10 -21 0 -24 2 -12 10 20 13 53 13 45 0z"/>
<path d="M2800 3202 c0 -4 14 -21 32 -38 18 -16 26 -20 18 -9 -22 30 -50 57
-50 47z"/>
<path d="M2745 3180 c-3 -5 1 -10 9 -10 9 0 16 5 16 10 0 6 -4 10 -9 10 -6 0
-13 -4 -16 -10z"/>
<path d="M2678 3173 c7 -3 16 -2 19 1 4 3 -2 6 -13 5 -11 0 -14 -3 -6 -6z"/>
<path d="M2800 3120 c-13 -8 -13 -10 2 -10 9 0 20 5 23 10 8 13 -5 13 -25 0z"/>
<path d="M2798 3093 c7 -3 16 -2 19 1 4 3 -2 6 -13 5 -11 0 -14 -3 -6 -6z"/>
<path d="M2698 3043 c6 -2 18 -2 25 0 6 3 1 5 -13 5 -14 0 -19 -2 -12 -5z"/>
<path d="M2950 2832 c0 -10 63 -72 74 -72 9 0 -57 80 -66 80 -5 0 -8 -4 -8 -8z"/>
<path d="M777 2789 c4 -13 8 -18 11 -10 2 7 -1 18 -6 23 -8 8 -9 4 -5 -13z"/>
<path d="M3288 2773 c7 -3 16 -2 19 1 4 3 -2 6 -13 5 -11 0 -14 -3 -6 -6z"/>
<path d="M3265 2731 c-7 -12 3 -17 38 -19 25 -2 27 0 13 13 -16 17 -42 20 -51
6z"/>
<path d="M2647 2644 c-12 -13 4 -24 34 -24 27 0 29 2 15 15 -15 16 -38 20 -49
9z"/>
<path d="M3228 2624 c-5 -5 -194 -33 -395 -59 -31 -4 -53 -12 -53 -19 0 -11
87 -196 93 -196 1 0 34 7 72 15 39 8 108 19 155 24 159 20 270 37 277 44 4 4
-15 50 -41 102 -43 85 -50 95 -75 95 -15 0 -30 -3 -33 -6z"/>
<path d="M1967 2543 c-10 -9 13 -33 33 -33 22 0 30 9 23 26 -5 14 -44 19 -56
7z"/>
<path d="M1300 2436 c0 -12 5 -16 16 -12 8 3 12 2 9 -4 -3 -6 2 -10 13 -10 15
0 18 5 15 23 -6 29 -53 32 -53 3z"/>
<path d="M1850 2412 c-58 -8 -121 -15 -142 -16 -20 -1 -34 -3 -31 -6 7 -7
-239 -40 -251 -33 -6 4 -6 -1 -2 -13 5 -10 11 -27 13 -36 3 -10 10 -18 15 -18
5 0 6 5 2 11 -5 9 1 10 21 5 16 -4 31 -3 34 3 3 5 20 12 36 16 24 5 27 4 15
-5 -11 -8 0 -9 45 -4 33 4 78 8 100 9 22 1 42 3 45 5 3 1 13 2 23 1 9 -1 17 3
17 9 0 6 11 -2 25 -18 22 -26 30 -29 77 -27 29 2 61 6 71 10 10 4 17 3 17 -4
0 -6 -10 -11 -22 -11 -28 0 -12 -17 22 -23 21 -4 20 -4 -7 -6 -17 0 -39 6 -47
15 -9 8 -22 13 -29 11 -9 -4 -9 -6 1 -6 17 -1 15 -21 -2 -21 -8 0 -18 -4 -21
-10 -4 -6 2 -7 17 -2 13 5 38 5 58 -1 35 -9 35 -9 10 -19 -14 -6 -56 -11 -95
-11 -41 -1 -60 -4 -45 -8 l25 -6 -25 -5 c-43 -9 81 2 160 14 41 7 76 12 78 13
1 1 -11 38 -28 81 -16 43 -30 84 -30 91 0 7 -12 13 -27 14 l-28 1 25 8 c39 12
1 10 -120 -8z m-113 -48 c-3 -3 -12 -4 -19 -1 -8 3 -5 6 6 6 11 1 17 -2 13 -5z
m-30 -20 c-3 -3 -12 -4 -19 -1 -8 3 -5 6 6 6 11 1 17 -2 13 -5z"/>
<path d="M1780 2306 c0 -2 7 -6 15 -10 8 -3 15 -1 15 4 0 6 -7 10 -15 10 -8 0
-15 -2 -15 -4z"/>
<path d="M1815 2240 c-3 -5 -2 -10 4 -10 5 0 13 5 16 10 3 6 2 10 -4 10 -5 0
-13 -4 -16 -10z"/>
<path d="M3527 2223 c-10 -9 25 -32 48 -32 11 0 15 3 8 5 -7 3 -9 12 -6 20 3
10 -2 14 -19 14 -14 0 -28 -3 -31 -7z"/>
<path d="M1708 2173 c7 -3 16 -2 19 1 4 3 -2 6 -13 5 -11 0 -14 -3 -6 -6z"/>
<path d="M2880 2111 c0 -12 6 -21 14 -21 8 0 21 -3 30 -6 11 -4 14 0 13 15 -1
12 -7 21 -13 21 -7 0 -19 3 -28 6 -12 4 -16 0 -16 -15z"/>
<path d="M2180 1999 c0 -6 -6 -7 -12 -4 -7 4 -4 -1 6 -9 22 -18 62 -21 71 -6
4 7 -3 9 -22 5 -25 -5 -26 -4 -5 4 30 14 28 18 -8 19 -16 0 -30 -4 -30 -9z"/>
<path d="M1480 1893 c0 -3 5 -13 10 -24 13 -24 43 -25 61 -2 10 11 10 14 2 9
-7 -4 -13 -3 -13 2 0 5 -13 12 -30 14 -16 3 -30 3 -30 1z"/>
<path d="M2686 1439 c-37 -43 -37 -119 -1 -147 21 -16 32 -18 64 -11 86 19 98
30 117 103 4 16 -3 32 -21 54 -24 29 -33 32 -80 32 -47 0 -56 -4 -79 -31z"/>
<path d="M2960 1280 c0 -5 9 -10 20 -10 11 0 20 5 20 10 0 6 -9 10 -20 10 -11
0 -20 -4 -20 -10z"/>
<path d="M3025 1265 c-16 -8 -45 -14 -62 -15 -22 0 -33 -5 -33 -15 0 -16 -80
-44 -150 -51 -25 -2 -53 -7 -62 -10 -11 -3 -20 1 -24 10 -3 9 -17 16 -30 16
-30 0 -32 -20 -1 -21 21 0 21 -1 2 -8 -12 -5 -25 -3 -33 6 -17 16 -23 16 -91
-1 -31 -8 -76 -19 -101 -25 -45 -10 -45 -10 -5 -6 22 2 46 1 52 -3 18 -11
-129 -36 -161 -28 -14 3 -26 4 -26 0 0 -9 28 -34 39 -34 20 0 11 -18 -11 -23
-24 -6 -104 6 -115 17 -7 7 -33 -12 -33 -25 0 -5 7 -9 15 -9 17 0 20 -16 6
-24 -14 -9 -41 4 -41 20 0 10 -12 14 -40 14 -36 0 -40 -3 -40 -25 0 -27 17
-39 73 -49 21 -4 37 -13 37 -21 0 -19 -22 -24 -39 -8 -7 8 -26 17 -42 20 -16
3 -29 11 -29 17 0 6 -8 20 -16 31 -13 18 -16 18 -24 4 -8 -13 -24 -15 -92 -12
-54 3 -78 1 -69 -5 11 -8 9 -14 -9 -32 -18 -18 -24 -20 -31 -9 -8 11 -14 9
-32 -12 -28 -31 -59 -45 -50 -23 5 14 3 14 -15 3 -18 -11 -24 -10 -41 5 -19
17 -21 17 -21 3 0 -10 7 -17 16 -17 13 0 14 -3 5 -13 -18 -23 0 -28 76 -21 71
7 72 6 84 -20 16 -33 20 -33 42 5 l17 31 78 -7 c42 -4 80 -11 83 -16 9 -15 41
2 35 18 -3 8 -6 17 -6 19 0 2 -8 4 -17 4 -9 0 -14 3 -11 6 11 11 148 -14 164
-30 15 -15 17 -15 33 2 13 16 25 19 69 14 43 -4 52 -2 52 12 0 12 10 16 40 16
22 0 40 -4 40 -10 0 -18 22 -10 42 15 11 14 30 25 43 25 13 0 30 6 37 13 21
21 48 28 41 11 -6 -16 12 -20 22 -4 3 6 43 10 87 10 81 0 82 0 61 19 -11 11
-38 21 -59 24 l-39 4 43 1 c23 1 42 7 42 12 0 16 19 11 37 -10 19 -21 58 -26
83 -10 12 8 9 10 -12 10 -42 0 -33 17 12 24 22 3 40 11 40 16 0 6 18 10 40 10
22 0 40 5 40 10 0 6 14 10 30 10 30 0 43 24 18 33 -7 2 -1 3 15 1 15 -2 27 1
27 7 0 6 -4 8 -10 4 -5 -3 -14 13 -21 35 -8 27 -18 40 -30 40 -9 0 -19 -3 -21
-7 -1 -5 -23 -6 -48 -3 -45 5 -45 5 22 13 37 4 75 10 85 14 15 6 15 7 -3 14
-27 11 -45 9 -79 -6z m-412 -102 c-7 -2 -19 -2 -25 0 -7 3 -2 5 12 5 14 0 19
-2 13 -5z m-56 -9 c-3 -3 -12 -4 -19 -1 -8 3 -5 6 6 6 11 1 17 -2 13 -5z m240
-70 c-3 -3 -12 -4 -19 -1 -8 3 -5 6 6 6 11 1 17 -2 13 -5z m-531 -89 c-16 -17
-52 -20 -61 -6 -5 9 18 17 58 20 16 1 17 -1 3 -14z m-301 -5 c-3 -5 -15 -10
-26 -10 -10 0 -19 5 -19 10 0 6 12 10 26 10 14 0 23 -4 19 -10z m498 -17 c-13
-2 -33 -2 -45 0 -13 2 -3 4 22 4 25 0 35 -2 23 -4z m-463 -43 c0 -5 -12 -10
-26 -10 -14 0 -23 4 -19 10 3 6 15 10 26 10 10 0 19 -4 19 -10z m260 0 c0 -5
-4 -10 -10 -10 -5 0 -10 5 -10 10 0 6 5 10 10 10 6 0 10 -4 10 -10z"/>
<path d="M2488 1223 c6 -2 18 -2 25 0 6 3 1 5 -13 5 -14 0 -19 -2 -12 -5z"/>
<path d="M2058 1203 c7 -3 16 -2 19 1 4 3 -2 6 -13 5 -11 0 -14 -3 -6 -6z"/>
<path d="M2006 1191 c-4 -5 3 -7 14 -4 23 6 26 13 6 13 -8 0 -17 -4 -20 -9z"/>
<path d="M1865 1170 l-30 -8 30 -1 c17 0 37 4 45 9 13 9 13 10 0 9 -8 -1 -28
-5 -45 -9z"/>
<path d="M1798 1153 c6 -2 18 -2 25 0 6 3 1 5 -13 5 -14 0 -19 -2 -12 -5z"/>
<path d="M1738 1143 c7 -3 16 -2 19 1 4 3 -2 6 -13 5 -11 0 -14 -3 -6 -6z"/>
<path d="M2225 1090 c-4 -6 3 -10 14 -10 25 0 27 6 6 13 -8 4 -17 2 -20 -3z"/>
<path d="M1988 1083 c6 -2 18 -2 25 0 6 3 1 5 -13 5 -14 0 -19 -2 -12 -5z"/>
<path d="M3018 1073 c7 -3 16 -2 19 1 4 3 -2 6 -13 5 -11 0 -14 -3 -6 -6z"/>
<path d="M1858 1063 c12 -2 32 -2 45 0 12 2 2 4 -23 4 -25 0 -35 -2 -22 -4z"/>
<path d="M1860 1046 c0 -2 14 -6 30 -8 17 -3 30 -1 30 4 0 4 -13 8 -30 8 -16
0 -30 -2 -30 -4z"/>
<path d="M2588 913 c7 -3 16 -2 19 1 4 3 -2 6 -13 5 -11 0 -14 -3 -6 -6z"/>
<path d="M2630 900 c-18 -12 -2 -12 25 0 13 6 15 9 5 9 -8 0 -22 -4 -30 -9z"/>
<path d="M1938 863 c12 -2 32 -2 45 0 12 2 2 4 -23 4 -25 0 -35 -2 -22 -4z"/>
<path d="M1717 844 c10 -4 10 -10 1 -24 -15 -24 -6 -34 22 -25 31 10 23 49
-10 52 -14 1 -20 0 -13 -3z"/>
<path d="M2328 823 c6 -2 18 -2 25 0 6 3 1 5 -13 5 -14 0 -19 -2 -12 -5z"/>
<path d="M1990 750 c-9 -6 -10 -10 -3 -10 6 0 15 5 18 10 8 12 4 12 -15 0z"/>
</g>
</svg>
